{
  "accessors": [
    {
      "bufferView": 0,
      "byteOffset": 0,
      "componentType": 5126,
      "count": 8,
      "max": [
        0.004000000000000001,
        0.009000000000000001,
        0.005
      ],
      "min": [
        -0.003999999999999999,
        0.001,
        0.005
      ],
      "type": "VEC3"
    },
    {
      "bufferView": 0,
      "byteOffset": 96,
      "componentType": 5126,
      "count": 4,
      "max": [
        0.003133974596215569,
        0.001,
        0.005
      ],
      "min": [
        -0.003133974596215565,
        0.0,
        0.004
      ],
      "type": "VEC3"
    },
    {
      "bufferView": 0,
      "byteOffset": 144,
      "componentType": 5126,
      "count": 6,
      "max": [
        0.005000000000000001,
        0.0018660254037844352,
        0.005
      ],
      "min": [
        0.003133974596215569,
        0.0,
        0.003133974596215566
      ],
      "type": "VEC3"
    },
    {
      "bufferView": 0,
      "byteOffset": 216,
      "componentType": 5126,
      "count": 4,
      "max": [
        0.005000000000000001,
        0.008133974596215563,
        0.005
      ],
      "min": [
        0.004000000000000001,
        0.0018660254037844335,
        0.004
      ],
      "type": "VEC3"
    },
    {
      "bufferView": 0,
      "byteOffset": 264,
      "componentType": 5126,
      "count": 6,
      "max": [
        0.005000000000000001,
        0.01,
        0.005
      ],
      "min": [
        0.0031339745962155616,
        0.008133974596215563,
        0.00313397459621556
      ],
      "type": "VEC3"
    },
    {
      "bufferView": 0,
      "byteOffset": 336,
      "componentType": 5126,
      "count": 4,
      "max": [
        0.0031339745962155633,
        0.01,
        0.005
      ],
      "min": [
        -0.0031339745962155633,
        0.009000000000000001,
        0.004
      ],
      "type": "VEC3"
    },
    {
      "bufferView": 0,
      "byteOffset": 384,
      "componentType": 5126,
      "count": 6,
      "max": [
        -0.0031339745962155625,
        0.01,
        0.005
      ],
      "min": [
        -0.004999999999999999,
        0.008133974596215565,
        0.0031339745962155625
      ],
      "type": "VEC3"
    },
    {
      "bufferView": 0,
      "byteOffset": 456,
      "componentType": 5126,
      "count": 4,
      "max": [
        -0.003999999999999999,
        0.008133974596215565,
        0.005
      ],
      "min": [
        -0.004999999999999999,
        0.001866025403784433,
        0.004
      ],
      "type": "VEC3"
    },
    {
      "bufferView": 0,
      "byteOffset": 504,
      "componentType": 5126,
      "count": 6,
      "max": [
        -0.003133974596215565,
        0.0018660254037844346,
        0.005
      ],
      "min": [
        -0.004999999999999999,
        0.0,
        0.003133974596215566
      ],
      "type": "VEC3"
    },
    {
      "bufferView": 0,
      "byteOffset": 576,
      "componentType": 5126,
      "count": 8,
      "max": [
        0.004000000000000001,
        0.0,
        0.004
      ],
      "min": [
        -0.003999999999999999,
        0.0,
        -0.004
      ],
      "type": "VEC3"
    },
    {
      "bufferView": 0,
      "byteOffset": 672,
      "componentType": 5126,
      "count": 8,
      "max": [
        0.005000000000000001,
        0.009000000000000001,
        0.004
      ],
      "min": [
        0.005000000000000001,
        0.001,
        -0.004
      ],
      "type": "VEC3"
    },
    {
      "bufferView": 0,
      "byteOffset": 768,
      "componentType": 5126,
      "count": 4,
      "max": [
        0.005000000000000001,
        0.001,
        0.0031339745962155664
      ],
      "min": [
        0.004000000000000001,
        0.0,
        -0.0031339745962155607
      ],
      "type": "VEC3"
    },
    {
      "bufferView": 0,
      "byteOffset": 816,
      "componentType": 5126,
      "count": 4,
      "max": [
        0.005000000000000001,
        0.01,
        0.00313397459621556
      ],
      "min": [
        0.004000000000000001,
        0.009000000000000001,
        -0.00313397459621557
      ],
      "type": "VEC3"
    },
    {
      "bufferView": 0,
      "byteOffset": 864,
      "componentType": 5126,
      "count": 8,
      "max": [
        0.004000000000000001,
        0.01,
        0.004
      ],
      "min": [
        -0.003999999999999999,
        0.01,
        -0.004
      ],
      "type": "VEC3"
    },
    {
      "bufferView": 0,
      "byteOffset": 960,
      "componentType": 5126,
      "count": 4,
      "max": [
        -0.003999999999999999,
        0.01,
        0.003133974596215564
      ],
      "min": [
        -0.004999999999999999,
        0.009000000000000001,
        -0.00313397459621556
      ],
      "type": "VEC3"
    },
    {
      "bufferView": 0,
      "byteOffset": 1008,
      "componentType": 5126,
      "count": 8,
      "max": [
        -0.004999999999999999,
        0.009000000000000001,
        0.004
      ],
      "min": [
        -0.004999999999999999,
        0.001,
        -0.004
      ],
      "type": "VEC3"
    },
    {
      "bufferView": 0,
      "byteOffset": 1104,
      "componentType": 5126,
      "count": 4,
      "max": [
        -0.003999999999999999,
        0.001,
        0.003133974596215566
      ],
      "min": [
        -0.004999999999999999,
        0.0,
        -0.003133974596215565
      ],
      "type": "VEC3"
    },
    {
      "bufferView": 0,
      "byteOffset": 1152,
      "componentType": 5126,
      "count": 6,
      "max": [
        -0.0031339745962155633,
        0.0018660254037844376,
        -0.0031339745962155625
      ],
      "min": [
        -0.004999999999999999,
        0.0,
        -0.005
      ],
      "type": "VEC3"
    },
    {
      "bufferView": 0,
      "byteOffset": 1224,
      "componentType": 5126,
      "count": 4,
      "max": [
        0.0031339745962155616,
        0.001,
        -0.004
      ],
      "min": [
        -0.003133974596215565,
        0.0,
        -0.005
      ],
      "type": "VEC3"
    },
    {
      "bufferView": 0,
      "byteOffset": 1272,
      "componentType": 5126,
      "count": 6,
      "max": [
        0.005000000000000001,
        0.0018660254037844418,
        -0.003133974596215559
      ],
      "min": [
        0.003133974596215561,
        0.0,
        -0.005
      ],
      "type": "VEC3"
    },
    {
      "bufferView": 0,
      "byteOffset": 1344,
      "componentType": 5126,
      "count": 4,
      "max": [
        0.005000000000000001,
        0.00813397459621557,
        -0.004
      ],
      "min": [
        0.004000000000000001,
        0.0018660254037844407,
        -0.005
      ],
      "type": "VEC3"
    },
    {
      "bufferView": 0,
      "byteOffset": 1392,
      "componentType": 5126,
      "count": 6,
      "max": [
        0.005000000000000001,
        0.01,
        -0.003133974596215568
      ],
      "min": [
        0.00313397459621557,
        0.00813397459621557,
        -0.005
      ],
      "type": "VEC3"
    },
    {
      "bufferView": 0,
      "byteOffset": 1464,
      "componentType": 5126,
      "count": 6,
      "max": [
        -0.0031339745962155564,
        0.01,
        -0.0031339745962155586
      ],
      "min": [
        -0.004999999999999999,
        0.008133974596215562,
        -0.005
      ],
      "type": "VEC3"
    },
    {
      "bufferView": 0,
      "byteOffset": 1536,
      "componentType": 5126,
      "count": 4,
      "max": [
        0.0031339745962155707,
        0.01,
        -0.004
      ],
      "min": [
        -0.00313397459621556,
        0.009000000000000001,
        -0.005
      ],
      "type": "VEC3"
    },
    {
      "bufferView": 0,
      "byteOffset": 1584,
      "componentType": 5126,
      "count": 4,
      "max": [
        -0.003999999999999999,
        0.008133974596215562,
        -0.004
      ],
      "min": [
        -0.004999999999999999,
        0.0018660254037844376,
        -0.005
      ],
      "type": "VEC3"
    },
    {
      "bufferView": 0,
      "byteOffset": 1632,
      "componentType": 5126,
      "count": 8,
      "max": [
        0.004000000000000001,
        0.009000000000000001,
        -0.005
      ],
      "min": [
        -0.003999999999999999,
        0.001,
        -0.005
      ],
      "type": "VEC3"
    },
    {
      "bufferView": 1,
      "byteOffset": 0,
      "componentType": 5126,
      "count": 8,
      "type": "VEC3"
    },
    {
      "bufferView": 1,
      "byteOffset": 96,
      "componentType": 5126,
      "count": 4,
      "type": "VEC3"
    },
    {
      "bufferView": 1,
      "byteOffset": 144,
      "componentType": 5126,
      "count": 6,
      "type": "VEC3"
    },
    {
      "bufferView": 1,
      "byteOffset": 216,
      "componentType": 5126,
      "count": 4,
      "type": "VEC3"
    },
    {
      "bufferView": 1,
      "byteOffset": 264,
      "componentType": 5126,
      "count": 6,
      "type": "VEC3"
    },
    {
      "bufferView": 1,
      "byteOffset": 336,
      "componentType": 5126,
      "count": 4,
      "type": "VEC3"
    },
    {
      "bufferView": 1,
      "byteOffset": 384,
      "componentType": 5126,
      "count": 6,
      "type": "VEC3"
    },
    {
      "bufferView": 1,
      "byteOffset": 456,
      "componentType": 5126,
      "count": 4,
      "type": "VEC3"
    },
    {
      "bufferView": 1,
      "byteOffset": 504,
      "componentType": 5126,
      "count": 6,
      "type": "VEC3"
    },
    {
      "bufferView": 1,
      "byteOffset": 576,
      "componentType": 5126,
      "count": 8,
      "type": "VEC3"
    },
    {
      "bufferView": 1,
      "byteOffset": 672,
      "componentType": 5126,
      "count": 8,
      "type": "VEC3"
    },
    {
      "bufferView": 1,
      "byteOffset": 768,
      "componentType": 5126,
      "count": 4,
      "type": "VEC3"
    },
    {
      "bufferView": 1,
      "byteOffset": 816,
      "componentType": 5126,
      "count": 4,
      "type": "VEC3"
    },
    {
      "bufferView": 1,
      "byteOffset": 864,
      "componentType": 5126,
      "count": 8,
      "type": "VEC3"
    },
    {
      "bufferView": 1,
      "byteOffset": 960,
      "componentType": 5126,
      "count": 4,
      "type": "VEC3"
    },
    {
      "bufferView": 1,
      "byteOffset": 1008,
      "componentType": 5126,
      "count": 8,
      "type": "VEC3"
    },
    {
      "bufferView": 1,
      "byteOffset": 1104,
      "componentType": 5126,
      "count": 4,
      "type": "VEC3"
    },
    {
      "bufferView": 1,
      "byteOffset": 1152,
      "componentType": 5126,
      "count": 6,
      "type": "VEC3"
    },
    {
      "bufferView": 1,
      "byteOffset": 1224,
      "componentType": 5126,
      "count": 4,
      "type": "VEC3"
    },
    {
      "bufferView": 1,
      "byteOffset": 1272,
      "componentType": 5126,
      "count": 6,
      "type": "VEC3"
    },
    {
      "bufferView": 1,
      "byteOffset": 1344,
      "componentType": 5126,
      "count": 4,
      "type": "VEC3"
    },
    {
      "bufferView": 1,
      "byteOffset": 1392,
      "componentType": 5126,
      "count": 6,
      "type": "VEC3"
    },
    {
      "bufferView": 1,
      "byteOffset": 1464,
      "componentType": 5126,
      "count": 6,
      "type": "VEC3"
    },
    {
      "bufferView": 1,
      "byteOffset": 1536,
      "componentType": 5126,
      "count": 4,
      "type": "VEC3"
    },
    {
      "bufferView": 1,
      "byteOffset": 1584,
      "componentType": 5126,
      "count": 4,
      "type": "VEC3"
    },
    {
      "bufferView": 1,
      "byteOffset": 1632,
      "componentType": 5126,
      "count": 8,
      "type": "VEC3"
    },
    {
      "bufferView": 2,
      "byteOffset": 0,
      "componentType": 5123,
      "count": 18,
      "type": "SCALAR"
    },
    {
      "bufferView": 2,
      "byteOffset": 36,
      "componentType": 5123,
      "count": 6,
      "type": "SCALAR"
    },
    {
      "bufferView": 2,
      "byteOffset": 48,
      "componentType": 5123,
      "count": 12,
      "type": "SCALAR"
    },
    {
      "bufferView": 2,
      "byteOffset": 72,
      "componentType": 5123,
      "count": 6,
      "type": "SCALAR"
    },
    {
      "bufferView": 2,
      "byteOffset": 84,
      "componentType": 5123,
      "count": 12,
      "type": "SCALAR"
    },
    {
      "bufferView": 2,
      "byteOffset": 108,
      "componentType": 5123,
      "count": 6,
      "type": "SCALAR"
    },
    {
      "bufferView": 2,
      "byteOffset": 120,
      "componentType": 5123,
      "count": 12,
      "type": "SCALAR"
    },
    {
      "bufferView": 2,
      "byteOffset": 144,
      "componentType": 5123,
      "count": 6,
      "type": "SCALAR"
    },
    {
      "bufferView": 2,
      "byteOffset": 156,
      "componentType": 5123,
      "count": 12,
      "type": "SCALAR"
    },
    {
      "bufferView": 2,
      "byteOffset": 180,
      "componentType": 5123,
      "count": 18,
      "type": "SCALAR"
    },
    {
      "bufferView": 2,
      "byteOffset": 216,
      "componentType": 5123,
      "count": 18,
      "type": "SCALAR"
    },
    {
      "bufferView": 2,
      "byteOffset": 252,
      "componentType": 5123,
      "count": 6,
      "type": "SCALAR"
    },
    {
      "bufferView": 2,
      "byteOffset": 264,
      "componentType": 5123,
      "count": 6,
      "type": "SCALAR"
    },
    {
      "bufferView": 2,
      "byteOffset": 276,
      "componentType": 5123,
      "count": 18,
      "type": "SCALAR"
    },
    {
      "bufferView": 2,
      "byteOffset": 312,
      "componentType": 5123,
      "count": 6,
      "type": "SCALAR"
    },
    {
      "bufferView": 2,
      "byteOffset": 324,
      "componentType": 5123,
      "count": 18,
      "type": "SCALAR"
    },
    {
      "bufferView": 2,
      "byteOffset": 360,
      "componentType": 5123,
      "count": 6,
      "type": "SCALAR"
    },
    {
      "bufferView": 2,
      "byteOffset": 372,
      "componentType": 5123,
      "count": 12,
      "type": "SCALAR"
    },
    {
      "bufferView": 2,
      "byteOffset": 396,
      "componentType": 5123,
      "count": 6,
      "type": "SCALAR"
    },
    {
      "bufferView": 2,
      "byteOffset": 408,
      "componentType": 5123,
      "count": 12,
      "type": "SCALAR"
    },
    {
      "bufferView": 2,
      "byteOffset": 432,
      "componentType": 5123,
      "count": 6,
      "type": "SCALAR"
    },
    {
      "bufferView": 2,
      "byteOffset": 444,
      "componentType": 5123,
      "count": 12,
      "type": "SCALAR"
    },
    {
      "bufferView": 2,
      "byteOffset": 468,
      "componentType": 5123,
      "count": 12,
      "type": "SCALAR"
    },
    {
      "bufferView": 2,
      "byteOffset": 492,
      "componentType": 5123,
      "count": 6,
      "type": "SCALAR"
    },
    {
      "bufferView": 2,
      "byteOffset": 504,
      "componentType": 5123,
      "count": 6,
      "type": "SCALAR"
    },
    {
      "bufferView": 2,
      "byteOffset": 516,
      "componentType": 5123,
      "count": 18,
      "type": "SCALAR"
    }
  ],
  "asset": {
    "generator": "Open CASCADE Technology 7.8 [dev.opencascade.org]",
    "version": "2.0"
  },
  "bufferViews": [
    {
      "buffer": 0,
      "byteLength": 1728,
      "byteOffset": 0,
      "byteStride": 12,
      "target": 34962
    },
    {
      "buffer": 0,
      "byteLength": 1728,
      "byteOffset": 1728,
      "byteStride": 12,
      "target": 34962
    },
    {
      "buffer": 0,
      "byteLength": 552,
      "byteOffset": 3456,
      "target": 34963
    }
  ],
  "buffers": [
    {
      "byteLength": 4008,
      "uri": "navigation-cube.bin"
    }
  ],
  "materials": [
    {
      "name": "mat_0",
      "pbrMetallicRoughness": {
        "baseColorFactor": [
          0.168269544839859,
          0.19120186567306519,
          0.21586069464683533,
          1.0
        ]
      },
      "doubleSided": true
    }
  ],
  "meshes": [
    {
      "name": "Face-Front",
      "primitives": [
        {
          "attributes": {
            "NORMAL": 26,
            "POSITION": 0
          },
          "indices": 52,
          "material": 0,
          "mode": 4
        }
      ]
    },
    {
      "name": "Face-Front-Bottom",
      "primitives": [
        {
          "attributes": {
            "NORMAL": 27,
            "POSITION": 1
          },
          "indices": 53,
          "material": 0,
          "mode": 4
        }
      ]
    },
    {
      "name": "Face-Front-Bottom-Right",
      "primitives": [
        {
          "attributes": {
            "NORMAL": 28,
            "POSITION": 2
          },
          "indices": 54,
          "material": 0,
          "mode": 4
        }
      ]
    },
    {
      "name": "Face-Front-Right",
      "primitives": [
        {
          "attributes": {
            "NORMAL": 29,
            "POSITION": 3
          },
          "indices": 55,
          "material": 0,
          "mode": 4
        }
      ]
    },
    {
      "name": "Face-Front-Top-Right",
      "primitives": [
        {
          "attributes": {
            "NORMAL": 30,
            "POSITION": 4
          },
          "indices": 56,
          "material": 0,
          "mode": 4
        }
      ]
    },
    {
      "name": "Face-Front-Top",
      "primitives": [
        {
          "attributes": {
            "NORMAL": 31,
            "POSITION": 5
          },
          "indices": 57,
          "material": 0,
          "mode": 4
        }
      ]
    },
    {
      "name": "Face-Front-Letf-Top",
      "primitives": [
        {
          "attributes": {
            "NORMAL": 32,
            "POSITION": 6
          },
          "indices": 58,
          "material": 0,
          "mode": 4
        }
      ]
    },
    {
      "name": "Face-Front-Left",
      "primitives": [
        {
          "attributes": {
            "NORMAL": 33,
            "POSITION": 7
          },
          "indices": 59,
          "material": 0,
          "mode": 4
        }
      ]
    },
    {
      "name": "Face-Front-Left-Bottom",
      "primitives": [
        {
          "attributes": {
            "NORMAL": 34,
            "POSITION": 8
          },
          "indices": 60,
          "material": 0,
          "mode": 4
        }
      ]
    },
    {
      "name": "Face-Bottom",
      "primitives": [
        {
          "attributes": {
            "NORMAL": 35,
            "POSITION": 9
          },
          "indices": 61,
          "material": 0,
          "mode": 4
        }
      ]
    },
    {
      "name": "Face-Right",
      "primitives": [
        {
          "attributes": {
            "NORMAL": 36,
            "POSITION": 10
          },
          "indices": 62,
          "material": 0,
          "mode": 4
        }
      ]
    },
    {
      "name": "Face-Bottom-Right",
      "primitives": [
        {
          "attributes": {
            "NORMAL": 37,
            "POSITION": 11
          },
          "indices": 63,
          "material": 0,
          "mode": 4
        }
      ]
    },
    {
      "name": "Face-Top-Right",
      "primitives": [
        {
          "attributes": {
            "NORMAL": 38,
            "POSITION": 12
          },
          "indices": 64,
          "material": 0,
          "mode": 4
        }
      ]
    },
    {
      "name": "Face-Top",
      "primitives": [
        {
          "attributes": {
            "NORMAL": 39,
            "POSITION": 13
          },
          "indices": 65,
          "material": 0,
          "mode": 4
        }
      ]
    },
    {
      "name": "Face-Top-Left",
      "primitives": [
        {
          "attributes": {
            "NORMAL": 40,
            "POSITION": 14
          },
          "indices": 66,
          "material": 0,
          "mode": 4
        }
      ]
    },
    {
      "name": "Face-Left",
      "primitives": [
        {
          "attributes": {
            "NORMAL": 41,
            "POSITION": 15
          },
          "indices": 67,
          "material": 0,
          "mode": 4
        }
      ]
    },
    {
      "name": "Face-Bottom-Left",
      "primitives": [
        {
          "attributes": {
            "NORMAL": 42,
            "POSITION": 16
          },
          "indices": 68,
          "material": 0,
          "mode": 4
        }
      ]
    },
    {
      "name": "Face-Bottom-Back-Left",
      "primitives": [
        {
          "attributes": {
            "NORMAL": 43,
            "POSITION": 17
          },
          "indices": 69,
          "material": 0,
          "mode": 4
        }
      ]
    },
    {
      "name": "Face_Bottom-Back",
      "primitives": [
        {
          "attributes": {
            "NORMAL": 44,
            "POSITION": 18
          },
          "indices": 70,
          "material": 0,
          "mode": 4
        }
      ]
    },
    {
      "name": "Face-Bottom-Back-Right",
      "primitives": [
        {
          "attributes": {
            "NORMAL": 45,
            "POSITION": 19
          },
          "indices": 71,
          "material": 0,
          "mode": 4
        }
      ]
    },
    {
      "name": "Face-Back-Right",
      "primitives": [
        {
          "attributes": {
            "NORMAL": 46,
            "POSITION": 20
          },
          "indices": 72,
          "material": 0,
          "mode": 4
        }
      ]
    },
    {
      "name": "Face-Back-Top-Right",
      "primitives": [
        {
          "attributes": {
            "NORMAL": 47,
            "POSITION": 21
          },
          "indices": 73,
          "material": 0,
          "mode": 4
        }
      ]
    },
    {
      "name": "Face-Back-Top-Left",
      "primitives": [
        {
          "attributes": {
            "NORMAL": 48,
            "POSITION": 22
          },
          "indices": 74,
          "material": 0,
          "mode": 4
        }
      ]
    },
    {
      "name": "Face-Back-Top",
      "primitives": [
        {
          "attributes": {
            "NORMAL": 49,
            "POSITION": 23
          },
          "indices": 75,
          "material": 0,
          "mode": 4
        }
      ]
    },
    {
      "name": "Face-Back-Left",
      "primitives": [
        {
          "attributes": {
            "NORMAL": 50,
            "POSITION": 24
          },
          "indices": 76,
          "material": 0,
          "mode": 4
        }
      ]
    },
    {
      "name": "Face-Back",
      "primitives": [
        {
          "attributes": {
            "NORMAL": 51,
            "POSITION": 25
          },
          "indices": 77,
          "material": 0,
          "mode": 4
        }
      ]
    }
  ],
  "nodes": [
    {
      "children": [
        1,
        2,
        3,
        4,
        5,
        6,
        7,
        8,
        9,
        10,
        11,
        12,
        13,
        14,
        15,
        16,
        17,
        18,
        19,
        20,
        21,
        22,
        23,
        24,
        25,
        26
      ],
      "name": "Unnamed"
    },
    {
      "mesh": 0,
      "name": "Face-Front"
    },
    {
      "mesh": 1,
      "name": "Face-Front-Bottom"
    },
    {
      "mesh": 2,
      "name": "Face-Front-Bottom-Right"
    },
    {
      "mesh": 3,
      "name": "Face-Front-Right"
    },
    {
      "mesh": 4,
      "name": "Face-Front-Top-Right"
    },
    {
      "mesh": 5,
      "name": "Face-Front-Top"
    },
    {
      "mesh": 6,
      "name": "Face-Front-Letf-Top"
    },
    {
      "mesh": 7,
      "name": "Face-Front-Left"
    },
    {
      "mesh": 8,
      "name": "Face-Front-Left-Bottom"
    },
    {
      "mesh": 9,
      "name": "Face-Bottom"
    },
    {
      "mesh": 10,
      "name": "Face-Right"
    },
    {
      "mesh": 11,
      "name": "Face-Bottom-Right"
    },
    {
      "mesh": 12,
      "name": "Face-Top-Right"
    },
    {
      "mesh": 13,
      "name": "Face-Top"
    },
    {
      "mesh": 14,
      "name": "Face-Top-Left"
    },
    {
      "mesh": 15,
      "name": "Face-Left"
    },
    {
      "mesh": 16,
      "name": "Face-Bottom-Left"
    },
    {
      "mesh": 17,
      "name": "Face-Bottom-Back-Left"
    },
    {
      "mesh": 18,
      "name": "Face_Bottom-Back"
    },
    {
      "mesh": 19,
      "name": "Face-Bottom-Back-Right"
    },
    {
      "mesh": 20,
      "name": "Face-Back-Right"
    },
    {
      "mesh": 21,
      "name": "Face-Back-Top-Right"
    },
    {
      "mesh": 22,
      "name": "Face-Back-Top-Left"
    },
    {
      "mesh": 23,
      "name": "Face-Back-Top"
    },
    {
      "mesh": 24,
      "name": "Face-Back-Left"
    },
    {
      "mesh": 25,
      "name": "Face-Back"
    }
  ],
  "scene": 0,
  "scenes": [
    {
      "nodes": [
        0
      ]
    }
  ]
}
